<?xml version="1.0" encoding="UTF-8" standalone="no"?>
<!-- Created with Inkscape (http://www.inkscape.org/) -->

<svg
   width="113.67364mm"
   height="56.37999mm"
   viewBox="0 0 113.67364 56.37999"
   version="1.1"
   id="svg3223"
   inkscape:version="1.2.1 (9c6d41e410, 2022-07-14)"
   sodipodi:docname="logo.svg"
   inkscape:export-filename="logo.png"
   inkscape:export-xdpi="67.034012"
   inkscape:export-ydpi="67.034012"
   xmlns:inkscape="http://www.inkscape.org/namespaces/inkscape"
   xmlns:sodipodi="http://sodipodi.sourceforge.net/DTD/sodipodi-0.dtd"
   xmlns="http://www.w3.org/2000/svg"
   xmlns:svg="http://www.w3.org/2000/svg"
   xmlns:rdf="http://www.w3.org/1999/02/22-rdf-syntax-ns#"
   xmlns:cc="http://creativecommons.org/ns#"
   xmlns:dc="http://purl.org/dc/elements/1.1/">
  <defs
     id="defs3217" />
  <sodipodi:namedview
     id="base"
     pagecolor="#ffffff"
     bordercolor="#666666"
     borderopacity="1.0"
     inkscape:pageopacity="0.0"
     inkscape:pageshadow="2"
     inkscape:zoom="2.8284271"
     inkscape:cx="161.22035"
     inkscape:cy="53.033008"
     inkscape:document-units="mm"
     inkscape:current-layer="layer1"
     showgrid="false"
     inkscape:pagecheckerboard="true"
     inkscape:window-width="1920"
     inkscape:window-height="1017"
     inkscape:window-x="-8"
     inkscape:window-y="-8"
     inkscape:window-maximized="1"
     inkscape:showpageshadow="2"
     inkscape:deskcolor="#d1d1d1"
     showguides="true" />
  <metadata
     id="metadata3220">
    <rdf:RDF>
      <cc:Work
         rdf:about="">
        <dc:format>image/svg+xml</dc:format>
        <dc:type
           rdf:resource="http://purl.org/dc/dcmitype/StillImage" />
        <dc:title />
      </cc:Work>
    </rdf:RDF>
  </metadata>
  <g
     inkscape:label="Layer 1"
     inkscape:groupmode="layer"
     id="layer1"
     transform="translate(-56.556041,-109.30405)">
    <g
       transform="translate(-3.779915,-23.48222)"
       id="g2559">
      <path
         inkscape:connector-curvature="0"
         id="path148"
         style="fill:#73c8ff;fill-opacity:1;fill-rule:nonzero;stroke:none;stroke-width:0.347732"
         d="m 143.44393,145.03077 0.1484,-0.70241 5.14257,-0.35974 -6.23062,29.75753 -0.69199,0.0483 6.08255,-29.05476 z m 1.18682,31.16724 7.31835,-35.07438 -10.43302,0.72923 -1.28514,6.12249 4.45021,-0.31125 -6.03235,28.95253 z" />
      <path
         sodipodi:nodetypes="cccccccccccccccccccccc"
         inkscape:connector-curvature="0"
         id="path152"
         style="fill:#73c8ff;fill-opacity:1;fill-rule:nonzero;stroke:none;stroke-width:0.347732"
         d="m 169.25392,142.53363 -3.53672,16.8925 4.79124,-0.32874 -0.15681,0.75402 -4.79234,0.32881 -2.53549,12.11072 -0.75405,0.052 2.53724,-12.11108 -11.37332,0.78724 z m -18.98495,21.327 11.37324,-0.78724 -2.5247,12.11146 5.98312,-0.41839 2.52513,-12.10406 4.82658,-0.33116 1.26721,-6.07903 -4.82564,0.33109 3.52398,-16.89101 -4.56014,0.33565 -16.70168,19.60839 z" />
      <path
         inkscape:connector-curvature="0"
         id="path160"
         style="fill:#fefefe;fill-opacity:1;fill-rule:nonzero;stroke:none;stroke-width:0.3535"
         d="m 92.729867,163.79634 9.680333,-0.62609 -0.0204,-2.57874 -5.550429,0.20934 1.221311,-5.65969 2.078108,-10.75531 -3.343224,0.0382 z"
         sodipodi:nodetypes="cccccccc" />
      <path
         inkscape:connector-curvature="0"
         id="path164"
         style="fill:#fefefe;fill-opacity:1;fill-rule:nonzero;stroke:none;stroke-width:0.357772"
         d="m 104.11708,163.17025 9.82195,-0.68652 c 0,0 0.12542,-3.1e-4 0.17706,-0.0453 0.0517,-0.045 0.0701,-0.17016 0.0701,-0.17016 l 2.79196,-13.29466 -3.56918,0.24996 -2.07135,9.87234 -2.88824,0.20221 2.58812,-12.36067 2.88836,-0.20324 -0.51689,2.48936 3.56918,-0.24996 0.9941,-4.74244 c 0,0 -0.006,-0.69101 -0.20911,-0.9391 -0.17794,-0.21724 -0.77013,-0.34145 -0.77013,-0.34145 l -8.76107,0.61236 z"
         sodipodi:nodetypes="ccsccccccccccsccc" />
      <path
         inkscape:connector-curvature="0"
         id="path164-9"
         style="fill:#fefefe;fill-opacity:1;fill-rule:nonzero;stroke:none;stroke-width:0.347732"
         d="m 65.354139,165.15944 9.74554,-0.68118 1.377,-6.50502 -3.4693,0.24296 -0.63527,2.9832 -2.80718,0.19654 2.51548,-12.01379 2.80731,-0.19754 -0.50239,2.4195 3.46902,-0.24294 1.24513,-5.93998 -9.74589,0.68119 z"
         sodipodi:nodetypes="ccccccccccccc" />
      <path
         inkscape:connector-curvature="0"
         id="path172"
         style="fill:#d5d5d5;fill-opacity:1;fill-rule:nonzero;stroke:none;stroke-width:0.347732"
         d="m 71.070134,172.95255 -4.734664,0.33077 0.57447,-2.73456 2.139294,-0.14973 -0.376241,1.80924 2.595442,-0.18103 0.930868,-4.44332 -7.330114,0.5118 -1.66358,8.00131 4.734672,-0.33077 -0.773014,3.62025 -2.119829,0.1484 0.475696,-2.23174 -2.614982,0.18237 -1.030327,4.86616 7.330104,-0.5118 z" />
      <path
         inkscape:connector-curvature="0"
         id="path176"
         style="fill:#d5d5d5;fill-opacity:1;fill-rule:nonzero;stroke:none;stroke-width:0.347732"
         d="m 74.794828,169.99754 2.496095,-0.17422 -2.436556,11.62085 2.595151,-0.182 2.436903,-11.62086 2.496023,-0.17421 0.554678,-2.63441 -7.587516,0.53064 z" />
      <path
         inkscape:connector-curvature="0"
         id="path180"
         style="fill:#d5d5d5;fill-opacity:1;fill-rule:nonzero;stroke:none;stroke-width:0.347732"
         d="m 87.573322,171.75893 0.554606,-2.69318 2.119754,-0.1484 -0.554978,2.69354 z m 2.832629,8.59803 2.991888,-14.25529 -7.310379,0.51154 -2.99153,14.25493 2.595227,-0.18201 1.327293,-6.27378 2.11968,-0.14839 -1.327288,6.27414 z" />
      <path
         inkscape:connector-curvature="0"
         id="path184"
         style="fill:#d5d5d5;fill-opacity:1;fill-rule:nonzero;stroke:none;stroke-width:0.347732"
         d="m 98.977684,179.78056 2.436926,-11.62086 2.49608,-0.1752 0.55493,-2.63374 -7.587518,0.53065 -0.554634,2.63373 2.495947,-0.17421 -2.436599,11.6212 z" />
      <path
         inkscape:connector-curvature="0"
         id="path188"
         style="fill:#d5d5d5;fill-opacity:1;fill-rule:nonzero;stroke:none;stroke-width:0.347732"
         d="m 104.62426,179.38562 2.5951,-0.18101 2.9915,-14.25528 -2.59522,0.182 z" />
      <path
         inkscape:connector-curvature="0"
         id="path192"
         style="fill:#d5d5d5;fill-opacity:1;fill-rule:nonzero;stroke:none;stroke-width:0.347732"
         d="m 115.73198,167.18138 2.11975,-0.14839 -1.88236,8.98749 -2.11949,0.14838 z m -5.03203,11.80203 7.31001,-0.51042 2.99153,-14.25494 -7.31028,0.51044 z" />
      <path
         inkscape:connector-curvature="0"
         id="path192-7"
         style="fill:#fefefe;fill-opacity:1;fill-rule:nonzero;stroke:none;stroke-width:0.464564"
         d="m 85.822185,148.71095 2.831949,-0.19825 -2.5148,12.00713 -2.831603,0.19824 z m -6.722706,15.76731 9.766048,-0.68192 3.996632,-19.04435 -9.766408,0.68194 z" />
      <path
         inkscape:connector-curvature="0"
         id="path196"
         style="fill:#d5d5d5;fill-opacity:1;fill-rule:nonzero;stroke:none;stroke-width:0.347732"
         d="m 124.08538,178.07141 1.36653,-6.47511 1.18856,6.29603 2.25853,-0.15792 2.99192,-14.25493 -2.59522,0.18201 -1.36734,6.57353 -1.18854,-6.39514 -2.25854,0.15791 -2.99084,14.25493 z" />
      <path
         inkscape:connector-curvature="0"
         id="path204"
         style="fill:#4bff8c;fill-opacity:1;fill-rule:nonzero;stroke:none;stroke-width:0.347732"
         d="m 70.519326,139.92277 -0.277457,1.36553 72.590811,-4.99019 30.88246,-2.12298 0.29445,-1.38886 z"
         sodipodi:nodetypes="cccccc" />
      <path
         inkscape:connector-curvature="0"
         id="path208"
         style="fill:#4bff8c;fill-opacity:1;fill-rule:nonzero;stroke:none;stroke-width:0.347732"
         d="m 60.335956,189.16626 103.473274,-7.11356 0.29444,-1.38885 -103.489968,7.13649 z" />
      <path
         sodipodi:nodetypes="cccccccc"
         inkscape:connector-curvature="0"
         id="path1772"
         d="m 167.92741,145.26275 -12.87687,14.89523 9.91366,-0.68019 z m -3.743,7.27758 -1.02896,4.93612 -3.51544,0.2412 z"
         style="fill:#73c8ff;fill-opacity:1;stroke:none;stroke-width:0.262684px;stroke-linecap:butt;stroke-linejoin:miter;stroke-opacity:1" />
    </g>
  </g>
</svg>
